<svg version="1.1" xmlns="http://www.w3.org/2000/svg" viewBox="0 0 2174.3478260869565 1152.608695652174">
  <!-- svg-source:excalidraw -->
  <defs>
    <style>
      @font-face {
        font-family: "Virgil";
        src: url("https://excalidraw.com/FG_Virgil.woff2");
      }
      @font-face {
        font-family: "Cascadia";
        src: url("https://excalidraw.com/Cascadia.woff2");
      }
    </style>
  </defs>
  <g transform="translate(186.08695652173924 10) rotate(0 841.3043478260869 113.04347826086956)">
    <path d="M-0.7551571674644948 0.6083693213760853 C390.5745423615789 6.253461561303424, 781.4392203757296 5.758298764329242, 1682.0864828540255 0.2660205788910389 M0.20944058634340765 0.30654338262975217 C395.6348252544584 -6.207173067396103, 790.4139426038479 -5.80945033437532, 1682.5382792348285 0.12911831997334958 M1683.1351612820413 -0.8159451833417173 C1679.1687434678176 61.966060673958665, 1682.4118526702696 120.93712456500701, 1683.5472603647975 226.5295686242942 M1682.4182580371792 -0.7391697563851272 C1683.1720681768136 80.8481779931167, 1683.4893485791888 161.33358965795708, 1682.57317564379 226.19813808589674 M1682.4812035752702 225.5169123089508 C1165.2962562490902 222.23411977357515, 647.2690901423927 221.34013342923768, -0.33794522956013684 226.7327804243759 M1682.6072856420892 226.0243597323642 C1142.9855880115665 219.7908562425362, 603.4097373201307 219.76798342501985, -0.06575721763074398 226.32030426809644 M0.9167644906043427 225.98354787527535 C0.6354869102094587 160.73570662533257, 1.9234064373024595 98.448251689804, -0.6389965311811496 -1.0022582104931412 M-0.2036325923491051 225.64327697721487 C1.633967009467569 138.09288387845626, 0.6786419856671209 50.851749066506784, -0.06082834731500911 -0.1896829819354963" stroke="#364fc7" stroke-width="1" fill="none"></path>
  </g>
  <g transform="translate(933.9130434782612 70.76086956521726) rotate(0 78.5 54)">
    <text x="0" y="87" font-family="Cascadia, Segoe UI Emoji" font-size="89.35968379446639px" fill="#364fc7" text-anchor="start" style="white-space: pre;" direction="ltr">App</text>
  </g>
  <g transform="translate(557.8260869565221 523.0434782608695) rotate(0 470.65217391304367 94.56521739130432)">
    <path d="M-0.46807578131556515 0.7139601163566113 C352.6295650210962 1.8222145212490282, 705.9313752876193 0.9901277912456711, 941.8556023794351 0.008544652909040452 M-0.08858596421778203 -0.1330787565559149 C242.41655636613638 0.39506012736617246, 484.87075532185673 -0.031844849001777975, 940.9225607372015 0.35543238855898385 M940.4183502792506 0.012416644021868706 C942.4209252491232 68.95629865931265, 943.3264947428938 139.529619074872, 941.1003297566562 188.97420526984263 M941.7465535448058 -0.2877517407760024 C943.0664638822457 43.11580098039753, 943.6524388437649 88.6405018110071, 940.3524093375667 190.10765540077466 M941.0288240867792 188.52401464040506 C713.3352808626857 191.82341691290387, 486.02544811832854 192.3601488474513, -0.5669218592345715 189.64536767060983 M941.5150939799039 189.2580256627791 C620.3605468879658 192.1507578744107, 300.3180202885816 192.2174587024861, 0.09569978378713132 189.45469797122408 M1.9705084431916475 187.54349608662653 C1.3652868231394042 147.1577725026999, 0.010491784439300433 102.89599415497932, 1.1331130731850863 0.5011557172983885 M0.8043341552838683 189.14444449021596 C-0.8473690433792116 138.8951839015859, -2.109941063671494 89.27860706692316, 0.014939627610147 -0.8492356305941939" stroke="#364fc7" stroke-width="1" fill="none"></path>
  </g>
  <g transform="translate(803.4782608695657 566.4130434782608) rotate(0 180.52272727272725 47)">
    <text x="0" y="76" font-family="Cascadia, Segoe UI Emoji" font-size="76.9090909090909px" fill="#364fc7" text-anchor="start" style="white-space: pre;" direction="ltr">UserForm</text>
  </g>
  <g>
    <g transform="translate(996.9565217391307 277.391304347826) rotate(0 1.6092699707023712 101.1861124492445)">
      <path d="M1.1758188385516404 0.3511557262390852 C1.7996396529799994 34.08547051259034, 2.4271743283303064 168.1309104074117, 2.8845549419530014 201.630292103553 M0.3339849994517863 -0.5100914628244937 C0.8257222578241226 33.44888894325771, 1.1299810076573475 169.09212820300348, 1.6414916539386195 202.88231636131349" stroke="#364fc7" stroke-width="1" fill="none"></path>
    </g>
    <g transform="translate(996.9565217391307 277.391304347826) rotate(0 1.6092699707023712 101.1861124492445)">
      <path d="M-8.256754889493253 173.8371037019028 C-7.534566154697382 181.88225334537276, -5.6108185409445595 188.85597505485174, 2.375447441433398 203.66213452177288 M-9.229731807825532 175.2682788844763 C-6.85536414686425 181.09110476172233, -3.226192289205401 186.64867538183415, 1.7967123627484125 203.54115131883117" stroke="#364fc7" stroke-width="1" fill="none"></path>
    </g>
    <g transform="translate(996.9565217391307 277.391304347826) rotate(0 1.6092699707023712 101.1861124492445)">
      <path d="M12.263810363048291 173.674610311193 C8.296632315995414 181.95795524499107, 5.532063392263834 188.96880168478432, 2.375447441433398 203.66213452177288 M11.290833444716013 175.1057854937665 C8.944273452076906 181.11488550090414, 7.851228685568648 186.70984929130557, 1.7967123627484125 203.54115131883117" stroke="#364fc7" stroke-width="1" fill="none"></path>
    </g>
  </g>
  <g transform="translate(10 979.5652173913044) rotate(0 336.9565217391305 81.52173913043481)">
    <path d="M0.008369416743516923 -0.7998843736946584 C244.08849394844606 -1.378941076912958, 488.5776707567599 -1.1834338127756898, 673.207668278496 0.43373214527964593 M0.2503322448581457 -0.21220845244824887 C259.51168482556295 -2.5919063117841024, 519.8118401253839 -2.2742586758473653, 673.642131995912 -0.3681644704192877 M672.1812479158298 0.4964058827608824 C670.7991042386377 64.35164926699163, 671.9103469501817 123.62881152024093, 673.5896220465556 163.16754841164732 M674.1613078422279 -0.030886954627931118 C673.1892841037 56.14253056041251, 674.587095307895 114.87288720051399, 673.7729848630161 162.27406177309388 M673.6127564409182 162.28789868720852 C505.074321782994 165.62892866262607, 337.4869804173061 165.3858327163141, 0.0037555165588855745 163.52601807483518 M674.2202456829503 163.20110082210087 C481.700398094855 165.13359543502983, 289.50106709306334 165.42043481290992, 0.03423041962087155 163.38006377995993 M1.09141574986279 162.7731398876109 C-1.6087783190988652 108.2285238420591, -1.8487204525255314 56.19408350146337, -1.2920459043234587 -0.34784759767353535 M-0.9571883762255311 162.60336947825783 C-1.7820882167788632 106.32687164389571, -1.742101338145364 49.071973579125896, -0.7685937071219087 -0.7868364816531539" stroke="#364fc7" stroke-width="1" fill="none"></path>
  </g>
  <g transform="translate(159.9999999999999 1016.4130434782608) rotate(0 165.4051383399207 38.30434782608694)">
    <text x="0" y="61.60869565217382" font-family="Cascadia, Segoe UI Emoji" font-size="62.67984189723312px" fill="#364fc7" text-anchor="start" style="white-space: pre;" direction="ltr">TextInput</text>
  </g>
  <g transform="translate(764.3478260869567 976.304347826087) rotate(0 336.9565217391305 81.52173913043481)">
    <path d="M0.2410703592002392 -0.09269104525446892 C142.46016932332324 -0.5811156610593848, 285.57310907724116 0.2776483913316675, 673.7864959204004 0.22283451035618784 M-0.15752979777753354 -0.12086851932108403 C172.1951916503518 2.401804193789545, 344.8380349399118 2.3747180431433352, 673.9965249781862 0.13548289202153682 M673.6468421441868 -1.8045970927923918 C672.7591934871618 45.44529086209673, 673.3156324696486 89.93155462570168, 674.4163177830533 164.5974448892572 M673.0337781633616 0.9839844917878509 C674.2134318419976 45.448048279418266, 674.708410955338 89.61025411874546, 673.8333822514296 163.71639788349205 M673.583523007612 162.3608395627984 C438.181727517542 160.83500200511648, 202.482513051642 161.61247180701926, 0.37171994969248773 162.33716986694418 M674.1553755169168 163.05331621871375 C455.63093919485163 161.27697341853514, 238.35827022202963 161.4224801939143, 0.14311582781374454 163.38760265813255 M0.34265713207423687 163.44590061635756 C2.74455767819334 114.30212926471853, 0.43337047049451827 60.898273760857805, -1.8149645496159792 1.8462254870682955 M-0.23037785943597555 162.47382542689377 C-0.62737059376567 121.57296070845234, 0.0599360189643563 78.56280395967646, 0.027068101800978184 0.6043420350179076" stroke="#364fc7" stroke-width="1" fill="none"></path>
  </g>
  <g transform="translate(914.3478260869567 1013.1521739130435) rotate(0 165.40513833992065 38.30434782608694)">
    <text x="0" y="61.60869565217382" font-family="Cascadia, Segoe UI Emoji" font-size="62.67984189723312px" fill="#364fc7" text-anchor="start" style="white-space: pre;" direction="ltr">TextInput</text>
  </g>
  <g transform="translate(1490.4347826086955 976.304347826087) rotate(0 336.9565217391305 81.52173913043481)">
    <path d="M0.40248288586735725 -0.5486162967979908 C171.8242132472442 -2.143477714239904, 344.28031326804484 -1.4665518404834952, 673.9192568757937 0.7269123010337353 M0.09375841282308102 0.21234538294374944 C267.9146843779995 2.6222842355785168, 536.3912465583859 2.0680152913150587, 674.0066728947119 0.3855614993721247 M674.0569448729411 -1.7357773948460817 C674.785769422073 59.003099733842156, 674.8988183927723 118.6504069620177, 675.2578471561328 162.06181281165266 M673.4882866151065 0.5614586705341935 C672.6049381688683 32.599248619102276, 671.8637999788373 65.94730410874702, 674.4301857657165 164.01883602527016 M674.068541357796 163.4816212929138 C504.9979373365803 164.48642467284662, 337.6553064904135 165.2552649142788, 0.6643690772354603 162.40320549377287 M674.2947868106321 162.97587514699484 C421.6935585074775 164.2145577125252, 169.99139903672034 164.61539359614258, 0.3264438953250647 163.2167494970658 M1.2605735529214144 164.18945133046293 C0.08524006364219172 116.24484917719893, 0.0462008690582989 67.85552770935973, -1.858069909736514 1.1073871087282896 M0.7050851201638579 162.2073136904561 C-1.435282679902309 124.40695839342868, -0.9023482228386341 87.50848240700917, -0.8179071629419923 0.8033376270905137" stroke="#364fc7" stroke-width="1" fill="none"></path>
  </g>
  <g transform="translate(1640.434782608695 1013.1521739130435) rotate(0 202 38)">
    <text x="0" y="61" font-family="Cascadia, Segoe UI Emoji" font-size="62.67984189723312px" fill="#364fc7" text-anchor="start" style="white-space: pre;" direction="ltr">ContactEdit</text>
  </g>
  <g transform="translate(1529.5652173913045 57.71739130434787) rotate(0 84.5 65.5)">
    <text x="0" y="34.666666666666664" font-family="Cascadia, Segoe UI Emoji" font-size="36px" fill="#2b8a3e" text-anchor="start" style="white-space: pre;" direction="ltr">fullName</text>
    <text x="0" y="78.33333333333333" font-family="Cascadia, Segoe UI Emoji" font-size="36px" fill="#2b8a3e" text-anchor="start" style="white-space: pre;" direction="ltr">password</text>
    <text x="0" y="122" font-family="Cascadia, Segoe UI Emoji" font-size="36px" fill="#2b8a3e" text-anchor="start" style="white-space: pre;" direction="ltr">contacts</text>
  </g>
  <g transform="translate(1043.2608695652175 311.89130434782606) rotate(0 84.5 65.5)">
    <text x="0" y="34.666666666666664" font-family="Cascadia, Segoe UI Emoji" font-size="36px" fill="#862e9c" text-anchor="start" style="white-space: pre;" direction="ltr">fullName</text>
    <text x="0" y="78.33333333333333" font-family="Cascadia, Segoe UI Emoji" font-size="36px" fill="#862e9c" text-anchor="start" style="white-space: pre;" direction="ltr">password</text>
    <text x="0" y="122" font-family="Cascadia, Segoe UI Emoji" font-size="36px" fill="#862e9c" text-anchor="start" style="white-space: pre;" direction="ltr">contacts</text>
  </g>
  <g transform="translate(262.826086956522 835.8043478260868) rotate(0 84.5 22)">
    <text x="0" y="35" font-family="Cascadia, Segoe UI Emoji" font-size="36px" fill="#862e9c" text-anchor="start" style="white-space: pre;" direction="ltr">fullName</text>
  </g>
  <g transform="translate(1041.0869565217395 874.9565217391304) rotate(0 84.5 22)">
    <text x="0" y="35" font-family="Cascadia, Segoe UI Emoji" font-size="36px" fill="#862e9c" text-anchor="start" style="white-space: pre;" direction="ltr">password</text>
  </g>
  <g transform="translate(1710.5869565217395 889.9565217391304) rotate(0 74 22)">
    <text x="0" y="35" font-family="Cascadia, Segoe UI Emoji" font-size="36px" fill="#862e9c" text-anchor="start" style="white-space: pre;" direction="ltr">contact</text>
  </g>
  <g>
    <g transform="translate(1008.8715918422797 720.8226480379861) rotate(0 -245.89614823152033 116.66681045807255)">
      <path d="M0.2904908437281848 -0.9164823967963457 C-81.43464784057716 38.12140524633014, -409.2156735570122 195.05831819361867, -490.96580957102947 234.25010331294143 M-1.016140192653984 1.2167603995464744 C-82.87364501625204 39.87873824393162, -410.46075624949754 193.84166923557268, -492.0827873067687 232.31782144595513" stroke="#364fc7" stroke-width="1" fill="none"></path>
    </g>
    <g transform="translate(1008.8715918422797 720.8226480379861) rotate(0 -245.89614823152033 116.66681045807255)">
      <path d="M-472.4723029033866 210.49334269449392 C-475.5947931170899 217.09912929976838, -480.87935745740856 221.22489587774737, -490.55834631600777 230.60888646644185 M-470.2271394282233 210.77945230122933 C-477.7911438114261 217.80569984356848, -482.9724720817964 223.156156427858, -491.8868775170053 233.07928311460296" stroke="#364fc7" stroke-width="1" fill="none"></path>
    </g>
    <g transform="translate(1008.8715918422797 720.8226480379861) rotate(0 -245.89614823152033 116.66681045807255)">
      <path d="M-463.7338628714267 229.06104767366892 C-469.03358082841044 231.0692364372244, -476.49184853659744 230.57625153333646, -490.55834631600777 230.60888646644185 M-461.4886993962634 229.34715728040433 C-471.75581052132134 230.82179332235887, -479.5584977426341 230.60230613320564, -491.8868775170053 233.07928311460296" stroke="#364fc7" stroke-width="1" fill="none"></path>
    </g>
  </g>
  <g>
    <g transform="translate(1022.3482359621892 720.3791404549761) rotate(0 379.82259767157404 118.63175124309393)">
      <path d="M0.8007554668933154 -1.1328575927764177 C127.535332392592 38.32008007340256, 633.1515198699572 197.26642902903873, 759.8831819854752 237.21856446438275 M-0.23798664232715971 0.8867882256768644 C126.36966812715681 40.44032325139393, 631.9696801657602 199.11206774047258, 758.8464845438563 238.3963600789643" stroke="#364fc7" stroke-width="1" fill="none"></path>
    </g>
    <g transform="translate(1022.3482359621892 720.3791404549761) rotate(0 379.82259767157404 118.63175124309393)">
      <path d="M726.9909865759462 239.51307349362716 C735.4125105041898 241.13398634430837, 745.3624406408817 238.91475327256256, 757.742331076514 239.80433800085254 M728.8021110246107 240.30133497705057 C737.6436092308805 238.34726877743094, 748.8139038351749 238.33279769811145, 758.6753089065738 237.57717281873144" stroke="#364fc7" stroke-width="1" fill="none"></path>
    </g>
    <g transform="translate(1022.3482359621892 720.3791404549761) rotate(0 379.82259767157404 118.63175124309393)">
      <path d="M733.1033144129195 219.9232942503789 C740.0399646568317 226.6060514557163, 748.4232438259503 229.40787540586922, 757.742331076514 239.80433800085254 M734.914438861584 220.7115557338023 C741.8620723343608 225.15950875205857, 751.045167416599 231.51393688555427, 758.6753089065738 237.57717281873144" stroke="#364fc7" stroke-width="1" fill="none"></path>
    </g>
  </g>
  <g>
    <g transform="translate(1005.7719635611024 726.3827018528557) rotate(0 2.927652032461424 121.56480490726952)">
      <path d="M0.7262505311518908 0.039389232918620065 C1.562867093459507 40.61198370550626, 5.295828611034851 203.41545987151827, 6.206910734255553 244.1151451796772 M-0.35160666933283213 -0.985535365138203 C0.2719030539140007 39.16683080437459, 4.540973535574923 201.72611234536657, 5.551637933351786 242.26177275392357" stroke="#364fc7" stroke-width="1" fill="none"></path>
    </g>
    <g transform="translate(1005.7719635611024 726.3827018528557) rotate(0 2.927652032461424 121.56480490726952)">
      <path d="M-5.358980864095218 215.27129660966935 C-0.03309491986042179 226.31946529433986, 4.549640963943653 237.19393384248283, 7.524415286951453 242.19740836347583 M-5.807663257042594 214.92350664689334 C-0.6599087186898092 225.24904624491577, 1.759742266427927 233.76012694525303, 4.647740579903812 242.23262446678373" stroke="#364fc7" stroke-width="1" fill="none"></path>
    </g>
    <g transform="translate(1005.7719635611024 726.3827018528557) rotate(0 2.927652032461424 121.56480490726952)">
      <path d="M15.155552164193733 214.74790668133554 C12.300451681724878 226.1290293044774, 8.699237101651615 237.21229603685737, 7.524415286951453 242.19740836347583 M14.706869771246357 214.40011671855953 C12.61008989321177 224.7485427335401, 7.7814345750098735 233.4445504079111, 4.647740579903812 242.23262446678373" stroke="#364fc7" stroke-width="1" fill="none"></path>
    </g>
  </g>
  <g transform="translate(260.9565217391307 885.6086956521739) rotate(0 126.5 22)">
    <text x="0" y="35" font-family="Cascadia, Segoe UI Emoji" font-size="36px" fill="#862e9c" text-anchor="start" style="white-space: pre;" direction="ltr">onTextChange</text>
  </g>
  <g transform="translate(570.7608695652175 320.391304347826) rotate(0 169 43.5)">
    <text x="0" y="35.5" font-family="Cascadia, Segoe UI Emoji" font-size="36px" fill="#862e9c" text-anchor="start" style="white-space: pre;" direction="ltr">onFullNameChange</text>
    <text x="0" y="79" font-family="Cascadia, Segoe UI Emoji" font-size="36px" fill="#862e9c" text-anchor="start" style="white-space: pre;" direction="ltr">onPasswordChange</text>
  </g>
</svg>